<svg width="400" height="400" viewBox="0 0 400 400" fill="none" xmlns="http://www.w3.org/2000/svg">
  <path d="M200 40C200 40 320 120 320 220C320 297.32 266.274 360 200 360C133.726 360 80 297.32 80 220C80 120 200 40 200 40Z" fill="url(#paint0_linear)" />
  <path d="M200 100C200 100 260 160 260 220C260 253.137 233.137 280 200 280C166.863 280 140 253.137 140 220C140 160 200 100 200 100Z" fill="url(#paint1_linear)" />
  <defs>
    <linearGradient id="paint0_linear" x1="200" y1="40" x2="200" y2="360" gradientUnits="userSpaceOnUse">
      <stop stop-color="#009639" />
      <stop offset="1" stop-color="#00aeef" />
    </linearGradient>
    <linearGradient id="paint1_linear" x1="200" y1="100" x2="200" y2="280" gradientUnits="userSpaceOnUse">
      <stop stop-color="#00aeef" />
      <stop offset="1" stop-color="#009639" />
    </linearGradient>
  </defs>
</svg>
